<?xml version="1.0" encoding="UTF-8" standalone="no"?>
<svg width="170px" height="34px" viewBox="0 0 170 34" version="1.1" xmlns="http://www.w3.org/2000/svg" xmlns:xlink="http://www.w3.org/1999/xlink" xmlns:sketch="http://www.bohemiancoding.com/sketch/ns">
    <!-- Generator: Sketch 3.0.4 (8053) - http://www.bohemiancoding.com/sketch -->
    <title>buttons-light</title>
    <desc>Created with Sketch.</desc>
    <defs></defs>
    <g id="Page-1" stroke="none" stroke-width="1" fill="none" fill-rule="evenodd" sketch:type="MSPage">
        <g id="buttons-light" sketch:type="MSLayerGroup" transform="translate(-11.000000, -21.000000)" fill="#FFFFFF">
            <g id="Page-1" sketch:type="MSShapeGroup">
                <g id="buttons-light" transform="translate(11.000000, 21.000000)">
                    <path d="M136,0 L136,34 L170,34 L170,0 L136,0 L136,0 Z M153.585786,17 L149.464466,12.8786797 L150.87868,11.4644661 L156.414214,17 L153.585786,17 L153.585786,17 Z M153.585786,17 L149.464466,21.1213203 L150.87868,22.5355339 L156.414214,17 L153.585786,17 L153.585786,17 Z" id="Scroll" transform="translate(153.000000, 17.000000) rotate(90.000000) translate(-153.000000, -17.000000) "></path>
                    <path d="M102,0 L102,34 L136,34 L136,0 L102,0 L102,0 Z M113,16 L113,18 L115,18 L115,16 L113,16 L113,16 Z M118,16 L118,18 L120,18 L120,16 L118,16 L118,16 Z M123,16 L123,18 L125,18 L125,16 L123,16 L123,16 Z" id="More"></path>
                    <path d="M34,0 L34,34 L68,34 L68,0 L34,0 L34,0 Z M43,11 L43,13 L59,13 L59,11 L43,11 L43,11 Z M43,16 L43,18 L59,18 L59,16 L43,16 L43,16 Z M43,21 L43,23 L59,23 L59,21 L43,21 L43,21 Z" id="Open"></path>
                    <path d="M85,18.4142136 L80.0502525,23.363961 L78.636039,21.9497475 L83.5857864,17 L78.636039,12.0502525 L80.0502525,10.636039 L85,15.5857864 L89.9497475,10.636039 L91.363961,12.0502525 L86.4142136,17 L91.363961,21.9497475 L89.9497475,23.363961 L85,18.4142136 L85,18.4142136 Z M68,0 L68,34 L102,34 L102,0 L68,0 L68,0 Z" id="Close"></path>
                    <path d="M0,0 L0,34 L34,34 L34,0 L0,0 Z M30.2318594,19.7095823 C29.4074687,19.497039 28.6358594,19.1795789 27.9445469,18.6690187 C27.6505937,18.4701188 27.3914219,18.1756672 27.1698438,17.9011341 C25.8863594,16.1219694 23.2313594,19.5551783 22.3637031,20.5349881 L22.3592969,20.5321358 C21.7625313,18.4175891 21.736375,12.8251477 18.0317969,15.1307029 C18.5059375,12.1209643 20.0576875,1.30977929 14.1525625,3.22604414 C11.85175,3.97267912 10.0655312,6.01972156 8.58029688,7.85279457 C6.94360938,9.87283531 5.53979688,12.1512462 4.72435937,14.6431986 C3.94515625,17.0243871 3.5816875,19.9427097 4.74146875,22.2654261 C5.99171875,24.7692632 8.65210938,24.2491477 10.5102813,22.7786486 C11.3032656,22.1510017 15.2395,17.8997555 12.8386094,17.2716808 C11.6588125,16.9630628 11.3536094,18.4366995 10.8640469,19.1911307 C10.3704531,19.9519321 9.76553125,20.637528 9.06404688,21.2077963 C8.623,21.5406587 8.15884375,21.8262207 7.61303125,21.9315654 C7.5195625,21.9396469 7.42609375,21.9406927 7.332625,21.9347029 C7.27182813,21.9216774 7.21196875,21.904944 7.15304688,21.884455 C7.10110938,21.8575008 7.05090625,21.8274092 7.00248437,21.7942275 C6.93376562,21.7337589 6.87001562,21.6680611 6.81128125,21.5971341 C6.72175,21.4652156 6.64309375,21.3265467 6.57526563,21.1811273 C4.57576562,15.8961154 9.23696875,9.41627844 13.0730312,6.26292699 C13.5165625,5.926309 13.9850312,5.62425127 14.4886562,5.38850934 C14.7110312,5.30008829 14.9538437,5.22288625 15.1896719,5.18190832 C15.3148281,5.17064177 15.4403594,5.16959593 15.5662656,5.17886587 C15.6192344,5.18913413 15.6714531,5.20220713 15.7229219,5.21813243 C15.7302344,5.22222071 15.7373594,5.22659423 15.7442969,5.23134805 C15.7760312,5.26310357 15.8198594,5.31525297 15.8512187,5.3529983 C15.8937344,5.42097793 15.93175,5.49185739 15.9671875,5.56397284 C16.1122656,5.92906621 16.1951875,6.31113073 16.2545312,6.69928014 C16.6655312,10.2387368 16.2185781,14.0489711 15.3958281,17.497107 C13.7763906,19.38618 12.672625,21.7567199 11.9118906,24.1222207 C11.4942813,25.4207742 9.92359375,30.0974873 11.6760625,30.879871 C13.6127969,31.7444958 14.7754844,27.1635246 15.073375,26.035966 C15.7402187,23.5114975 16.693,21.0815823 17.3287656,18.5462275 C17.7680312,18.0886248 18.2379531,17.6736638 18.7165938,17.2605569 C18.9167031,17.1103837 19.1259062,16.9709542 19.3471094,16.8552937 C19.3139688,16.8673209 19.4302656,16.8243463 19.4527656,16.8159796 C19.919875,17.9184856 19.8869688,19.2500306 20.1413594,20.4111986 C20.3447031,21.3394771 20.8088125,23.318017 21.8832813,23.5885569 C22.87225,23.8375144 23.4675625,22.5416706 23.9882031,21.908652 C24.5190625,21.2633209 25.5501719,20.2183837 25.939,19.8997827 C26.0027969,19.8463973 26.0864688,19.785691 26.1536406,19.7368693 L26.0469063,19.818635 C27.0444531,20.8040543 28.3254531,21.4428251 29.6667812,21.7885229 C31.0012187,22.1323667 31.5498906,20.0491002 30.2318594,19.7095823 Z" id="Logo"></path>
                </g>
            </g>
        </g>
    </g>
</svg>